<svg width="43" height="32" viewBox="0 0 43 32" fill="none" xmlns="http://www.w3.org/2000/svg">
<path d="M29.9393 31.0607C30.5251 31.6464 31.4749 31.6464 32.0607 31.0607L41.6066 21.5147C42.1924 20.9289 42.1924 19.9792 41.6066 19.3934C41.0208 18.8076 40.0711 18.8076 39.4853 19.3934L31 27.8787L22.5147 19.3934C21.9289 18.8076 20.9792 18.8076 20.3934 19.3934C19.8076 19.9792 19.8076 20.9289 20.3934 21.5147L29.9393 31.0607ZM29.5 0V30H32.5V0L29.5 0Z" fill="black"/>
<path d="M0.774549 14.135C0.296809 14.8118 0.458178 15.7477 1.13498 16.2255L12.164 24.0107C12.8408 24.4884 13.7768 24.327 14.2545 23.6502C14.7323 22.9734 14.5709 22.0375 13.8941 21.5598L4.09048 14.6396L11.0107 4.83596C11.4884 4.15916 11.327 3.22322 10.6502 2.74548C9.97345 2.26774 9.03751 2.42911 8.55977 3.10591L0.774549 14.135ZM30.7451 8.52181L1.74514 13.5218L2.25486 16.4782L31.2549 11.4782L30.7451 8.52181Z" fill="black"/>
</svg>
