<svg width="32" height="43" viewBox="0 0 32 43" fill="none" xmlns="http://www.w3.org/2000/svg">
<path d="M0.939338 29.9393C0.353551 30.5251 0.353551 31.4749 0.939338 32.0607L10.4853 41.6066C11.0711 42.1924 12.0208 42.1924 12.6066 41.6066C13.1924 41.0208 13.1924 40.0711 12.6066 39.4853L4.12132 31L12.6066 22.5147C13.1924 21.9289 13.1924 20.9792 12.6066 20.3934C12.0208 19.8076 11.0711 19.8076 10.4853 20.3934L0.939338 29.9393ZM32 29.5L2 29.5V32.5L32 32.5V29.5Z" fill="black"/>
<path d="M17.865 0.774549C17.1882 0.296809 16.2523 0.458178 15.7745 1.13498L7.98933 12.164C7.51159 12.8408 7.67295 13.7768 8.34975 14.2545C9.02655 14.7323 9.96249 14.5709 10.4402 13.8941L17.3604 4.09048L27.164 11.0107C27.8408 11.4884 28.7768 11.327 29.2545 10.6502C29.7323 9.97345 29.5709 9.03751 28.8941 8.55977L17.865 0.774549ZM23.4782 30.7451L18.4782 1.74514L15.5218 2.25486L20.5218 31.2549L23.4782 30.7451Z" fill="black"/>
</svg>
