<svg width="32" height="42" viewBox="0 0 32 42" fill="none" xmlns="http://www.w3.org/2000/svg">
<path d="M31.5607 12.5607C32.1464 11.9749 32.1464 11.0251 31.5607 10.4393L22.0147 0.893398C21.4289 0.307612 20.4792 0.307612 19.8934 0.893398C19.3076 1.47918 19.3076 2.42893 19.8934 3.01472L28.3787 11.5L19.8934 19.9853C19.3076 20.5711 19.3076 21.5208 19.8934 22.1066C20.4792 22.6924 21.4289 22.6924 22.0147 22.1066L31.5607 12.5607ZM0.5 13H30.5V10H0.5V13Z" fill="black"/>
<path d="M14.635 41.7255C15.3118 42.2032 16.2477 42.0418 16.7255 41.365L24.5107 30.336C24.9884 29.6592 24.827 28.7232 24.1502 28.2455C23.4734 27.7677 22.5375 27.9291 22.0598 28.6059L15.1396 38.4095L5.33596 31.4893C4.65916 31.0116 3.72322 31.173 3.24548 31.8498C2.76774 32.5265 2.92911 33.4625 3.60591 33.9402L14.635 41.7255ZM9.02181 11.7549L14.0218 40.7549L16.9782 40.2451L11.9782 11.2451L9.02181 11.7549Z" fill="black"/>
</svg>
