<svg width="43" height="32" viewBox="0 0 43 32" fill="none" xmlns="http://www.w3.org/2000/svg">
<path d="M13.0607 0.939338C12.4749 0.353551 11.5251 0.353551 10.9393 0.939338L1.3934 10.4853C0.807612 11.0711 0.807612 12.0208 1.3934 12.6066C1.97918 13.1924 2.92893 13.1924 3.51472 12.6066L12 4.12132L20.4853 12.6066C21.0711 13.1924 22.0208 13.1924 22.6066 12.6066C23.1924 12.0208 23.1924 11.0711 22.6066 10.4853L13.0607 0.939338ZM13.5 32L13.5 2H10.5L10.5 32H13.5Z" fill="black"/>
<path d="M42.2255 17.865C42.7032 17.1882 42.5418 16.2523 41.865 15.7745L30.836 7.98933C30.1592 7.51159 29.2232 7.67295 28.7455 8.34975C28.2677 9.02655 28.4291 9.96249 29.1059 10.4402L38.9095 17.3604L31.9893 27.164C31.5116 27.8408 31.673 28.7768 32.3498 29.2545C33.0265 29.7323 33.9625 29.5709 34.4402 28.8941L42.2255 17.865ZM12.2549 23.4782L41.2549 18.4782L40.7451 15.5218L11.7451 20.5218L12.2549 23.4782Z" fill="black"/>
</svg>
